<mxfile host="app.diagrams.net" modified="2021-02-02T01:13:20.472Z" agent="5.0 (Windows NT 10.0; Win64; x64) AppleWebKit/537.36 (KHTML, like Gecko) Chrome/88.0.4324.104 Safari/537.36" etag="BXEquadRhto93Amb28s1" version="14.2.9" type="github">
  <diagram id="7vCRAn9io0cjHUXjkhSI" name="Page-1">
    <mxGraphModel dx="419" dy="362" grid="1" gridSize="10" guides="1" tooltips="1" connect="1" arrows="1" fold="1" page="1" pageScale="1" pageWidth="827" pageHeight="1169" math="0" shadow="0">
      <root>
        <mxCell id="0" />
        <mxCell id="1" parent="0" />
        <mxCell id="qC0PYfWxZ1yqNLQXeQAL-1" value="REGION" style="rounded=0;whiteSpace=wrap;html=1;" vertex="1" parent="1">
          <mxGeometry x="320" y="280" width="80" height="40" as="geometry" />
        </mxCell>
        <mxCell id="qC0PYfWxZ1yqNLQXeQAL-4" value="STORE" style="rounded=0;whiteSpace=wrap;html=1;" vertex="1" parent="1">
          <mxGeometry x="500" y="280" width="90" height="40" as="geometry" />
        </mxCell>
        <mxCell id="qC0PYfWxZ1yqNLQXeQAL-5" value="JOB" style="rounded=0;whiteSpace=wrap;html=1;" vertex="1" parent="1">
          <mxGeometry x="320" y="430" width="80" height="50" as="geometry" />
        </mxCell>
        <mxCell id="qC0PYfWxZ1yqNLQXeQAL-6" value="EMPLOYEE" style="rounded=0;whiteSpace=wrap;html=1;" vertex="1" parent="1">
          <mxGeometry x="500" y="430" width="85" height="50" as="geometry" />
        </mxCell>
        <mxCell id="qC0PYfWxZ1yqNLQXeQAL-12" value="" style="endArrow=none;html=1;entryX=0;entryY=0.5;entryDx=0;entryDy=0;" edge="1" parent="1" source="qC0PYfWxZ1yqNLQXeQAL-28" target="qC0PYfWxZ1yqNLQXeQAL-4">
          <mxGeometry width="50" height="50" relative="1" as="geometry">
            <mxPoint x="400" y="299.5" as="sourcePoint" />
            <mxPoint x="480" y="299.5" as="targetPoint" />
            <Array as="points">
              <mxPoint x="430" y="299.5" />
            </Array>
          </mxGeometry>
        </mxCell>
        <mxCell id="qC0PYfWxZ1yqNLQXeQAL-13" value="" style="endArrow=none;html=1;entryX=0;entryY=0.5;entryDx=0;entryDy=0;" edge="1" parent="1" source="qC0PYfWxZ1yqNLQXeQAL-26">
          <mxGeometry width="50" height="50" relative="1" as="geometry">
            <mxPoint x="400" y="454.5" as="sourcePoint" />
            <mxPoint x="500" y="455" as="targetPoint" />
            <Array as="points">
              <mxPoint x="430" y="454.5" />
            </Array>
          </mxGeometry>
        </mxCell>
        <mxCell id="qC0PYfWxZ1yqNLQXeQAL-17" value="" style="endArrow=none;html=1;exitX=0.5;exitY=0;exitDx=0;exitDy=0;" edge="1" parent="1" source="qC0PYfWxZ1yqNLQXeQAL-24">
          <mxGeometry width="50" height="50" relative="1" as="geometry">
            <mxPoint x="544.5" y="390" as="sourcePoint" />
            <mxPoint x="544.5" y="320" as="targetPoint" />
          </mxGeometry>
        </mxCell>
        <mxCell id="qC0PYfWxZ1yqNLQXeQAL-18" value="" style="shape=image;verticalLabelPosition=bottom;labelBackgroundColor=#ffffff;verticalAlign=top;aspect=fixed;imageAspect=0;image=data:image/png,iVBORw0KGgoAAAANSUhEUgAAABYAAAApCAYAAAAxmNlDAAAB0UlEQVRIDWP4TyPAQCNz/48aDA9Z+gXF6Rn1/7flev7fkun8/8ysxv8/Pr6FuwLGuLJyyv8dBb5gNUc6c/5/e/sCJgWnMVy8syTo/zwbnv+zzVn+764I///1zXO4YhjjaHf+/wWOgmA1GxKt/n9+9gAmBacxDN5R6P9/jiX7/5nGDP93lQX///oa02CQK+fZ8oLVrI8z+/9p1GBQcI0GxWiqgGQsojLIEi+v/8h4goLY/w4Bpv/tfAz/JyiK/1/o4oQiD1I7WV3uf4cgC1hNrzT//wVODhhqGJpYWf8j40Ympv8NjAxgDGIjy8HYjczIahixqmFoYGD4TwvMsCIg4D8ynqQs+b9DkOl/Oz/D/0mqUv+XeHmiyIPUTtVW/N8pzAJW0ycr+H+JhxuGGobv79//R8Zbs7z+zzJl/z/dgOH/tjy//+/u3ECRB6k90Jj6f44lD1jNmgjj/6+vX8JQM1psjtYgo5XpoKjzzs5p/r+zKOD/9jzv/+fmtf//8fEdPG3CGNfWzPi/qywErOZYX9H/b29fwqTgNEaW/vX1M9gwUJvt17fP///9+wtXDGP8/v71/49P78Dtup9fPv7/9xdTDYbBMM2U0qMGw0Nw6AUFAImK49ZM0oKVAAAAAElFTkSuQmCC;" vertex="1" parent="1">
          <mxGeometry x="400" y="434.5" width="22" height="41" as="geometry" />
        </mxCell>
        <mxCell id="qC0PYfWxZ1yqNLQXeQAL-19" value="" style="endArrow=none;html=1;entryX=0;entryY=0.5;entryDx=0;entryDy=0;" edge="1" parent="1" target="qC0PYfWxZ1yqNLQXeQAL-18">
          <mxGeometry width="50" height="50" relative="1" as="geometry">
            <mxPoint x="400" y="454.5" as="sourcePoint" />
            <mxPoint x="500" y="455" as="targetPoint" />
            <Array as="points" />
          </mxGeometry>
        </mxCell>
        <mxCell id="qC0PYfWxZ1yqNLQXeQAL-20" value="" style="shape=image;verticalLabelPosition=bottom;labelBackgroundColor=#ffffff;verticalAlign=top;aspect=fixed;imageAspect=0;image=data:image/png,iVBORw0KGgoAAAANSUhEUgAAABYAAAApCAYAAAAxmNlDAAAB0UlEQVRIDWP4TyPAQCNz/48aDA9Z+gXF6Rn1/7flev7fkun8/8ysxv8/Pr6FuwLGuLJyyv8dBb5gNUc6c/5/e/sCJgWnMVy8syTo/zwbnv+zzVn+764I///1zXO4YhjjaHf+/wWOgmA1GxKt/n9+9gAmBacxDN5R6P9/jiX7/5nGDP93lQX///oa02CQK+fZ8oLVrI8z+/9p1GBQcI0GxWiqgGQsojLIEi+v/8h4goLY/w4Bpv/tfAz/JyiK/1/o4oQiD1I7WV3uf4cgC1hNrzT//wVODhhqGJpYWf8j40Ympv8NjAxgDGIjy8HYjczIahixqmFoYGD4TwvMsCIg4D8ynqQs+b9DkOl/Oz/D/0mqUv+XeHmiyIPUTtVW/N8pzAJW0ycr+H+JhxuGGobv79//R8Zbs7z+zzJl/z/dgOH/tjy//+/u3ECRB6k90Jj6f44lD1jNmgjj/6+vX8JQM1psjtYgo5XpoKjzzs5p/r+zKOD/9jzv/+fmtf//8fEdPG3CGNfWzPi/qywErOZYX9H/b29fwqTgNEaW/vX1M9gwUJvt17fP///9+wtXDGP8/v71/49P78Dtup9fPv7/9xdTDYbBMM2U0qMGw0Nw6AUFAImK49ZM0oKVAAAAAElFTkSuQmCC;" vertex="1" parent="1">
          <mxGeometry x="400" y="280" width="22" height="41" as="geometry" />
        </mxCell>
        <mxCell id="qC0PYfWxZ1yqNLQXeQAL-21" value="" style="endArrow=none;html=1;entryX=0;entryY=0.5;entryDx=0;entryDy=0;" edge="1" parent="1" target="qC0PYfWxZ1yqNLQXeQAL-20">
          <mxGeometry width="50" height="50" relative="1" as="geometry">
            <mxPoint x="400" y="299.5" as="sourcePoint" />
            <mxPoint x="500" y="300" as="targetPoint" />
            <Array as="points" />
          </mxGeometry>
        </mxCell>
        <mxCell id="qC0PYfWxZ1yqNLQXeQAL-24" value="" style="shape=image;verticalLabelPosition=bottom;labelBackgroundColor=#ffffff;verticalAlign=top;aspect=fixed;imageAspect=0;image=data:image/png,iVBORw0KGgoAAAANSUhEUgAAACwAAAAYCAYAAACBbx+6AAACBUlEQVRYCWP4TyXw/Pz5/4tcXf83MDDA8fqEhP9vbt6kkg0QYxioZdqog3GEJDyEPz6+8//RsR3/7+9bTxY+O7vv/0xjfXhyACWNxe6O/y8smkKWeSB3PD6+6//X189QnA538JWVU/6vDNb4P8+Wlyw8w4j7f4cAC4qDu8VZ/8804SbLPJA7Vofp/H9waDN2B19a2v9/iafM/5nGDGThKZoM/9v5EBkOFMKdwgz/p2qTZx7IHct8Ff/f379u1MHgGKF7CL+9dfH/zS0L/19dNY0sfLSr6v90PQ2UNDzfweL/iYn1ZJkHcsetbUv+f3p6D3uS+Pfnz/8/v378//PzO1n46amT/xc6O6M4eF1s7P+XVy6RZR7YHb9+/P/39y92B6OIksEZrThwBBq8HMYhT7TwaAjjCKrREKZb8/LenjX/d5eH/t+U5kAWXhFs8r9XRhClWJukJvF/VZgZWeaB3LGnKvL/8/OHURIHPElcXjbh/1If+f+zzFjIwlN1mP+38zGiOLhLhPH/ND1msswDuWN5gMr/+/s3YHfwaOOH1q21a+tm/18bY/x/sbsUWXiOpej/TmF2lCTRK835f56NGFnmgdyxPt7i/6Oj27EniT8/vv3/8fHd/+/vX5OFHx7e/3+BowOKg9dERfx/evoEWeaB3AFyz99fP7E7GEWUDM5oTYcj0ABux7IMpVe0EgAAAABJRU5ErkJggg==;" vertex="1" parent="1">
          <mxGeometry x="526.66" y="330" width="36.67" height="20" as="geometry" />
        </mxCell>
        <mxCell id="qC0PYfWxZ1yqNLQXeQAL-25" value="" style="endArrow=none;html=1;exitX=0.5;exitY=0;exitDx=0;exitDy=0;" edge="1" parent="1" source="qC0PYfWxZ1yqNLQXeQAL-30" target="qC0PYfWxZ1yqNLQXeQAL-24">
          <mxGeometry width="50" height="50" relative="1" as="geometry">
            <mxPoint x="542.5" y="430" as="sourcePoint" />
            <mxPoint x="544.5" y="320" as="targetPoint" />
          </mxGeometry>
        </mxCell>
        <mxCell id="qC0PYfWxZ1yqNLQXeQAL-26" value="" style="shape=image;verticalLabelPosition=bottom;labelBackgroundColor=#ffffff;verticalAlign=top;aspect=fixed;imageAspect=0;image=data:image/png,iVBORw0KGgoAAAANSUhEUgAAACkAAAA0CAYAAAAXKBGzAAAElElEQVRoBe3YW1AbVRgH8C1M44wWivDiWKt5b61j26Cj5WKs1oIPPlh6g/riOFYL9TKjI9W2tg3VAuXBWhVKwgixCqUzTiFcLNEZSXiwgM4oFtJyCRAqrUMJ4RrI3zm7PZuETXY3ZAN0LDPfHBKS3d9+5zvnW5bBMv/JywOYZW7EPaRSM3Qvk/+vTOo8y3d1ezweDP91BWVvZHuR7qlJ3Opsh6P1Fz5GujvgnpxQauZkHYfFdVxB86kcVO5Yh5JnYrzIsaE+NH7wKozpj/LRfCobowPXZR083A8R3M2OVljyD7I4fXIMijVR+GYT40WO9l/Hj68nsW+SP5Boyt2N272d4Z5f9Pss7m9fXCyPow6+4yw20g+XsQ76ZCFuyZAs7mobLAUHUZmxXhRnSH0Qx7T7Fm+6Q8WZD2ehv6UBJ3IdkUdy09oGa+E7MjIXB/MnWbC3NGD8pgOzM9P+NxhK1yTFWQo4nEGk5gypQhxdbX69WykkN63tsBS8KzNzmbBb6zE+PMhmjuLoqCiS4EgzsBbKwKXEwfyxOE5RJM0cwVVlPA7RaU2JQ5NMnCJIFtf5O6yn30PVTincajQd2gu7pR6uINNKUfPHBU/3ra4/0FL0PodLWS3oEHQTNiRTXB1cwwOYnZmab5B8HTKSx+3aAIMoLhZNh/agr9kE1z8ENy2JCfYB2UghLtqvx3szF4vLubt9cKFnbj5WEnnpTS0uf7QTVXzmguBSlMdRrCSy9Nn7QaJYExhHbgq4zNXemdbwM0dxdGSRFWlpIFGmTcXptfE4GcsIokjN4KsnuNs3MrXFm6OgT4pBxfa1uLDnSdTs3wpTThrqIhBfpKeBOa5SgYuV+DRqBY6uYASR/xCDsxu8SBaqiUbJUytR8rQK5yIYX2tUYI4yDKQiEJIulsUY7w5kkVoNEoWPrIFu1X04pmIEUbgmcE2Wb3sYxvTHYHxZHbE4m6QG86/NBhJ9v5pRmaHBl+sZQbCLZqOwJsu0CTAffg12awNGeq/itt2meHyeaxO/6a3O3IzqzE3sSg5Ue2RrKnsuHhf2bkRryXGMDnTDMzdHdw9FRsl98qcPd2Dwt59xrfEHmHK2S2KrCfacslhJJP2X1j01AdeNfg6bTbCrArZFmlkOe0KRzMpG0nkjTzPGbthxreF7mKSw2ni2VNpKdWFhQ0b6YYcI9jxMB14Sz6w2AaS2F4pdMNKLHQd5PGOrP4/aA9ug3yJSBj5Y52CP7AUWNnLB2CwN2vR5kINVDCnEfofat2VkVgZWcaQAW0ewL0qWwcUsDdqDZDZiyJCxidEg3SsQNuJIIdYonllfrOEknI5e6HRz4m2Rbub0ZOGO7sk7u0GdETVvvYDSLQ8EbgoUuy8RR175bHGR9CKF2CBbV2I0ziQmLA1yPrbLJJ7ZJXvSS6FkJJl1DvWhy1QRsAx45PTYKLrNF/Fn5Rk++lsaMe0c8T1eRH9nsY4edNWW49L+5/ma5ZEezxx7RTMuJ2jMTk3Ibl9K6t0TLrYbddZ8i/JdW701qeRJlDoWweYf6VneSHKxfpu5Ulev9HHuGuR/xx5JHwkP8/cAAAAASUVORK5CYII=;" vertex="1" parent="1">
          <mxGeometry x="476.35" y="440" width="23.65" height="30" as="geometry" />
        </mxCell>
        <mxCell id="qC0PYfWxZ1yqNLQXeQAL-27" value="" style="endArrow=none;html=1;entryX=0;entryY=0.5;entryDx=0;entryDy=0;" edge="1" parent="1" source="qC0PYfWxZ1yqNLQXeQAL-18" target="qC0PYfWxZ1yqNLQXeQAL-26">
          <mxGeometry width="50" height="50" relative="1" as="geometry">
            <mxPoint x="425" y="454.65625" as="sourcePoint" />
            <mxPoint x="500" y="455" as="targetPoint" />
            <Array as="points" />
          </mxGeometry>
        </mxCell>
        <mxCell id="qC0PYfWxZ1yqNLQXeQAL-28" value="" style="shape=image;verticalLabelPosition=bottom;labelBackgroundColor=#ffffff;verticalAlign=top;aspect=fixed;imageAspect=0;image=data:image/png,iVBORw0KGgoAAAANSUhEUgAAACkAAAA0CAYAAAAXKBGzAAAElElEQVRoBe3YW1AbVRgH8C1M44wWivDiWKt5b61j26Cj5WKs1oIPPlh6g/riOFYL9TKjI9W2tg3VAuXBWhVKwgixCqUzTiFcLNEZSXiwgM4oFtJyCRAqrUMJ4RrI3zm7PZuETXY3ZAN0LDPfHBKS3d9+5zvnW5bBMv/JywOYZW7EPaRSM3Qvk/+vTOo8y3d1ezweDP91BWVvZHuR7qlJ3Opsh6P1Fz5GujvgnpxQauZkHYfFdVxB86kcVO5Yh5JnYrzIsaE+NH7wKozpj/LRfCobowPXZR083A8R3M2OVljyD7I4fXIMijVR+GYT40WO9l/Hj68nsW+SP5Boyt2N272d4Z5f9Pss7m9fXCyPow6+4yw20g+XsQ76ZCFuyZAs7mobLAUHUZmxXhRnSH0Qx7T7Fm+6Q8WZD2ehv6UBJ3IdkUdy09oGa+E7MjIXB/MnWbC3NGD8pgOzM9P+NxhK1yTFWQo4nEGk5gypQhxdbX69WykkN63tsBS8KzNzmbBb6zE+PMhmjuLoqCiS4EgzsBbKwKXEwfyxOE5RJM0cwVVlPA7RaU2JQ5NMnCJIFtf5O6yn30PVTincajQd2gu7pR6uINNKUfPHBU/3ra4/0FL0PodLWS3oEHQTNiRTXB1cwwOYnZmab5B8HTKSx+3aAIMoLhZNh/agr9kE1z8ENy2JCfYB2UghLtqvx3szF4vLubt9cKFnbj5WEnnpTS0uf7QTVXzmguBSlMdRrCSy9Nn7QaJYExhHbgq4zNXemdbwM0dxdGSRFWlpIFGmTcXptfE4GcsIokjN4KsnuNs3MrXFm6OgT4pBxfa1uLDnSdTs3wpTThrqIhBfpKeBOa5SgYuV+DRqBY6uYASR/xCDsxu8SBaqiUbJUytR8rQK5yIYX2tUYI4yDKQiEJIulsUY7w5kkVoNEoWPrIFu1X04pmIEUbgmcE2Wb3sYxvTHYHxZHbE4m6QG86/NBhJ9v5pRmaHBl+sZQbCLZqOwJsu0CTAffg12awNGeq/itt2meHyeaxO/6a3O3IzqzE3sSg5Ue2RrKnsuHhf2bkRryXGMDnTDMzdHdw9FRsl98qcPd2Dwt59xrfEHmHK2S2KrCfacslhJJP2X1j01AdeNfg6bTbCrArZFmlkOe0KRzMpG0nkjTzPGbthxreF7mKSw2ni2VNpKdWFhQ0b6YYcI9jxMB14Sz6w2AaS2F4pdMNKLHQd5PGOrP4/aA9ug3yJSBj5Y52CP7AUWNnLB2CwN2vR5kINVDCnEfofat2VkVgZWcaQAW0ewL0qWwcUsDdqDZDZiyJCxidEg3SsQNuJIIdYonllfrOEknI5e6HRz4m2Rbub0ZOGO7sk7u0GdETVvvYDSLQ8EbgoUuy8RR175bHGR9CKF2CBbV2I0ziQmLA1yPrbLJJ7ZJXvSS6FkJJl1DvWhy1QRsAx45PTYKLrNF/Fn5Rk++lsaMe0c8T1eRH9nsY4edNWW49L+5/ma5ZEezxx7RTMuJ2jMTk3Ibl9K6t0TLrYbddZ8i/JdW701qeRJlDoWweYf6VneSHKxfpu5Ulev9HHuGuR/xx5JHwkP8/cAAAAASUVORK5CYII=;" vertex="1" parent="1">
          <mxGeometry x="476.35" y="285" width="23.65" height="30" as="geometry" />
        </mxCell>
        <mxCell id="qC0PYfWxZ1yqNLQXeQAL-29" value="" style="endArrow=none;html=1;entryX=0;entryY=0.5;entryDx=0;entryDy=0;" edge="1" parent="1" source="qC0PYfWxZ1yqNLQXeQAL-20" target="qC0PYfWxZ1yqNLQXeQAL-28">
          <mxGeometry width="50" height="50" relative="1" as="geometry">
            <mxPoint x="425" y="299.5" as="sourcePoint" />
            <mxPoint x="500" y="300" as="targetPoint" />
            <Array as="points" />
          </mxGeometry>
        </mxCell>
        <mxCell id="qC0PYfWxZ1yqNLQXeQAL-30" value="" style="shape=image;verticalLabelPosition=bottom;labelBackgroundColor=#ffffff;verticalAlign=top;aspect=fixed;imageAspect=0;image=data:image/png,iVBORw0KGgoAAAANSUhEUgAAAC0AAAAqCAYAAAAnH9IiAAAFbElEQVRYCcWYeUwcZRiHBzyAGGsNeMSYeNQ2orYmAi1oMXLVfzgqRxMvxMQo1BhpU1uPltZoUhukSZNybUHZpUBqW2hgGxAsmmC1BwlL2QW3HG2hdoEQyALVlutn3ll32W9ndne+2TVO8rHsMN87zz7z25dvRoAfNktXF3RJSdgnCI7RkJODCbPZD9WlJQTpLv49/yv09I2rGPm9FUPt9VyjU1OE8ojnHZbJePWrcTBoD3PVkTvvtY7TmB0dYUwypvuba9CQEw1d0kNcoyI6FAdC72agix4JQeVLYVx15M57LDNc/ODO1Ax036kK1G1+CuURAtc4HC5g/4rlPJPpA6ECip/lqyN3Xm18GPqba52Z4RfoshcElKwTUPzc8ihdJ4D2y4Hw7PvPoHkgeI/1Cj05aIJZr0VP3SHu0bItFd+9fK+s2SMb7kLbp1twqeYgd93eeg2mrrKtk4nH4vwc5v+exdzNGa4xcdmA5vxkaKICZaHLIwPw447XMNZzjquuyPHXLBYX5t1nmvkLxxvjsWLUJD8mD/zvl7oqIQzmpiqQGF83xrSaYtbrg2jdmQHN+js8QmsiA3Dm89cxOWhUcxpmjs/Qph+KUZv8uEdg+5dP6yfbPkEvW75TEbTD9oBvtn2C5rHsbPuPxu99yrZqaOv1IbTuzIRm/bLliuggHHF6T6BVr9yPyo33OK4E2f6Jsu2DbdXQcpbrs6NQl/qkA5CgG97ZgLo0dmmgTXgA5kb1nUQVtKzlF0NwtvBj6PMSGeiW7Wlo/SQTBGqPiCYyEGe+eEN1J1EFbaSOkcJ2DP3WRFw+XY2W/BQHHEG27khH36lK6PMSmP2i7SYtFufZfxxMb3PzhhvaneXuowcxYTagZZsUetx4AZ2aL/1mmxvadLxE1vJo92+wDvfLQtOHGe/t9JttLujpP6+gzbVjxASj+2iRuKawjgy4hV6cu43O8n2gfzBstt8ELdR4Ni5oWct5iRjtPgssLcETNEGNmy5Cn+uS7cQHYebMtmJob5YJyhu0W9u7+WwrhjYdL0VtyhOOS0uXuCk3AaMGm2Ul0HTMmOmCOM8eEXrVkm29TrIEpePlNkXQbi1Xf4u5m9OOut5M04ELlG2NTLY5bCuCNp2Qt2xxskxASqDpOMo2XSW1tr1C07OQtl1Z7BqDOoaLZR5o0bZMJ2nf8xYmh7x3Eq/QcpapA7ha5oEWbRul2dYlUba1XrPtEdqtZbEvL2eZIGhTGg861mZ7r6Rvt+/2btsjdO+JMtS6rNr0ufFMx7Dh2n7yQNOMMeN5NOXGM9mmp0zeOolbaJvlLcz6uMKe5VmpZYLghRZtl+0FPduwfylpBWiz3evsg/ndLbSJ07IaaJqjxrYs9PSNa2LHcL4LqYgJsnUMN5bVQpPti2UFqIoPZW3veRuTQ/K2ZaFNJ6VZbvogHhbDr+Iag7lWTm9442GfOtZzHlTfHhF69ZRtCbRay2pN07yFuVtctiXQvSfLJfd5Siz7Ak1zeWwz0DMWyrJrxwiCQVeI27NWqu1xUxsPKiraLpXP9pRLthloectxsHR5zrL9k/gCTTXoAaVctunec2lhwX6a5YfqM5Zh8XEs0zGilVumir5Cu812QTamrvRJoW2WVzHf4Mb3yXKHx47hqOQHaKo1eolsxzEcuk0Pi3f6dttCVhaQkzmMb5LYLJdEBOHD2EJkpFpBxygZ2ZsH8HUsezf+VWw63k01KJpP50hPu4X82AIcinDq21GB2L8pG+9l9Il1hOBgYG3YL9gVvhFlEQGOT7h9TRyeXtmBkOAl0DFKxqMrBvDRGhZ66+p0rFppUDTffo7V950Dnd+5b3/2TAzWhv4s1vkHnFUnApjVCOAAAAAASUVORK5CYII=;" vertex="1" parent="1">
          <mxGeometry x="528.93" y="400" width="32.14" height="30" as="geometry" />
        </mxCell>
        <mxCell id="qC0PYfWxZ1yqNLQXeQAL-34" value="" style="endArrow=none;html=1;exitX=0.5;exitY=0;exitDx=0;exitDy=0;" edge="1" parent="1" source="qC0PYfWxZ1yqNLQXeQAL-6" target="qC0PYfWxZ1yqNLQXeQAL-30">
          <mxGeometry width="50" height="50" relative="1" as="geometry">
            <mxPoint x="542.5" y="430" as="sourcePoint" />
            <mxPoint x="544.7177777777777" y="350" as="targetPoint" />
          </mxGeometry>
        </mxCell>
      </root>
    </mxGraphModel>
  </diagram>
</mxfile>
